<?xml version="1.0" standalone="no"?>
<!DOCTYPE svg PUBLIC "-//W3C//DTD SVG 20010904//EN"
 "http://www.w3.org/TR/2001/REC-SVG-20010904/DTD/svg10.dtd">
<svg version="1.0" xmlns="http://www.w3.org/2000/svg"
 width="510.000000pt" height="330.000000pt" viewBox="0 0 510.000000 330.000000"
 preserveAspectRatio="xMidYMid meet">
<metadata>
Created by potrace 1.16, written by Peter Selinger 2001-2019
</metadata>
<g transform="translate(0.000000,330.000000) scale(0.100000,-0.100000)"
fill="#000000" stroke="none">
<path d="M150 1650 c0 -825 4 -1500 8 -1500 5 0 14 10 21 23 16 30 56 53 106
62 182 32 289 97 315 192 18 65 23 70 88 83 93 18 145 32 183 51 39 20 109 91
109 113 0 7 3 26 6 42 4 24 -4 41 -50 101 -85 109 -75 131 47 111 40 -7 149
-12 242 -12 158 -1 173 1 212 22 81 43 102 86 63 127 -21 23 -19 49 5 59 7 2
46 0 87 -6 40 -5 88 -7 106 -4 57 9 119 44 131 75 11 25 9 31 -18 60 -41 44
-92 123 -88 135 5 14 53 13 259 -3 l167 -13 55 31 55 32 -30 41 c-16 23 -26
45 -22 48 5 4 48 3 97 -1 76 -7 94 -6 120 9 52 29 80 52 63 52 -13 0 -63 68
-55 75 2 1 43 -2 93 -6 78 -6 95 -4 127 12 37 19 57 39 39 39 -11 0 -86 128
-79 135 2 2 44 0 93 -5 130 -14 202 -12 235 5 31 16 39 42 19 62 -22 22 3 33
70 33 58 0 71 3 89 23 26 27 27 40 7 57 -17 14 -20 46 -4 55 6 4 52 8 103 9
l92 1 49 43 c26 23 56 42 65 42 10 0 23 7 30 16 8 8 34 27 59 41 25 15 65 44
88 64 22 21 61 43 85 50 23 7 50 18 58 25 8 6 31 19 50 29 19 9 46 27 60 40
24 22 68 45 220 121 41 20 77 40 80 44 3 4 39 24 80 44 98 49 111 56 310 164
41 22 103 49 136 60 68 22 206 92 242 121 19 17 22 29 22 95 l0 76 -2400 0
-2400 0 0 -1500z"/>
<path d="M4883 2343 c-32 -38 -72 -84 -87 -103 -140 -174 -421 -454 -750 -750
-22 -19 -71 -65 -109 -102 -39 -38 -74 -68 -79 -68 -4 0 -33 -25 -64 -55 -32
-30 -63 -55 -71 -55 -7 0 -13 -5 -13 -10 0 -8 -127 -140 -134 -140 -1 0 -3 11
-4 25 -1 14 3 25 8 25 5 0 15 10 21 22 11 21 11 22 -4 9 -15 -11 -18 -10 -25
8 -7 20 -9 19 -20 -13 -9 -25 -28 -44 -63 -66 -54 -33 -73 -47 -92 -68 -7 -8
-22 -24 -33 -37 -12 -13 -19 -26 -16 -29 3 -3 -3 -6 -12 -6 -10 0 -57 -37
-105 -83 -185 -174 -237 -215 -253 -199 -5 5 -5 27 1 53 15 65 14 79 -6 72
-25 -8 -73 -54 -73 -69 0 -7 -10 -16 -21 -19 -12 -4 -72 -50 -133 -103 -145
-125 -128 -112 -227 -184 -117 -86 -172 -124 -256 -180 -39 -26 -74 -52 -78
-57 -4 -8 361 -11 1235 -11 l1241 0 31 68 c17 37 82 172 144 300 l114 233 -2
241 -3 241 -27 1 c-16 1 -28 -2 -28 -6 0 -4 -7 -5 -15 -1 -15 5 -75 -13 -135
-40 -14 -6 -68 -55 -121 -109 -73 -73 -98 -94 -103 -82 -9 22 -8 26 6 18 7 -4
8 -3 4 4 -10 17 65 160 135 260 34 48 66 89 70 90 5 2 9 11 9 19 0 14 2 14 18
0 10 -10 23 -17 28 -17 15 0 48 83 45 113 -2 24 8 39 58 86 l61 58 0 96 c0 58
-4 97 -10 97 -5 0 -10 -6 -10 -13 0 -7 -11 -24 -25 -39 -14 -15 -25 -32 -25
-38 0 -11 -56 -98 -71 -110 -9 -7 -91 -130 -109 -162 -21 -38 -219 -274 -279
-332 l-51 -50 7 67 c5 56 3 70 -12 87 -25 28 -50 25 -96 -12 -21 -17 -41 -29
-44 -26 -3 3 18 32 47 65 79 90 138 161 183 218 137 174 308 364 370 411 28
21 56 44 63 51 8 7 18 11 23 8 5 -4 9 -1 9 5 0 7 7 10 15 6 13 -5 15 24 15
224 0 127 -2 230 -4 230 -2 0 -30 -30 -63 -67z m-1330 -1281 c-8 -24 -114
-121 -140 -128 -12 -3 -25 -14 -28 -24 -6 -18 -59 -69 -239 -225 -14 -12 -54
-35 -61 -35 -17 0 1 27 37 59 24 20 79 70 123 112 44 43 117 106 161 142 45
36 95 79 110 95 31 31 47 33 37 4z"/>
</g>
</svg>
